<svg id="Layer_1" data-name="Layer 1" xmlns="http://www.w3.org/2000/svg" viewBox="0 0 136.74 169.04"><defs><style>.cls-1{fill:#fff;}.cls-2{fill:#b8d7cd;}.cls-3{fill:#c9e2d9;}.cls-4{fill:#f49ec4;}</style></defs><title>bot</title><path d="M683.88,326.56c4.25,0,8.32,0,12.4,0,18.74.1,34.05,12.13,38.69,30.24.39,1.52,1.49,3.47,2.8,4.07a21.37,21.37,0,0,1,9.37,30.48,12,12,0,0,0-1.57,6.22c1.54,33.52-19,60.61-51.5,67.59-33.61,7.22-68.43-15.63-74.88-49.47-1.14-6-.73-12.25-1.22-18.38a13.55,13.55,0,0,0-1.49-5.08c-4.85-9.25-3.79-21.16,2.59-27.27.71-.68,1.42-1.61,2.29-1.84,5.55-1.45,6.88-5.77,8.52-10.63a38.5,38.5,0,0,1,36.23-25.92c3.4,0,6.8.15,10.18-.08,1.27-.09,3.53-1.08,3.52-1.65,0-2.11,1.57-4.85-1.76-6.21-4.4-1.8-7.13-5-7.27-10-.15-5.17,3.46-9.93,8.22-10.92,5.46-1.15,10.67,1.37,12.65,6.1,2.12,5.06.86,11-4,13.32C683.31,319.22,682.89,322,683.88,326.56Zm-2.07,3.69V330c-5.09,0-10.19,0-15.28,0-17,.12-32.2,11.77-34.61,28.54a104,104,0,0,0,.43,31.11c2.76,17,17.53,26.61,29.7,27.13,13,.56,26.08,1.13,39,0,17.11-1.55,29.14-14.26,31.13-31.35a127.68,127.68,0,0,0,.4-20.33c-.81-18.28-13.27-32.27-31.25-34.66C694.91,329.53,688.31,330.25,681.81,330.25ZM742,397.47c-3.12.84-5.6,1.34-8,2.21a8.18,8.18,0,0,0-3.88,2.54c-8.23,12.5-19.9,18.45-34.69,18.56-9.48.07-19,.1-28.44,0-12.53-.18-23.34-4.58-30.94-14.74a19.1,19.1,0,0,0-14.25-8.11c-2.64,17.47,8.24,43.66,20.67,49.47.19-.69.37-1.35.56-2,3.67-12.69,12.59-19.41,25.9-19.46q13.17-.06,26.32,0c12.34.06,21.72,7.3,24.88,19.12.23.87.62,1.7,1.13,3.05C736.41,434.26,743,417.65,742,397.47Zm-60.76,65.58a61.86,61.86,0,0,0,33.64-10c2-1.35,2.74-2.74,2.33-5.21-1.67-10.17-10-18.17-20.21-18.46s-20.63-.3-30.93,0c-9.64.32-18.28,8.34-19.79,17.45-.49,3,.13,5,2.9,6.66A62.84,62.84,0,0,0,681.21,463.05Zm-54.28-98.51c-8.07,2.39-11.67,10.33-9.57,20.56,1.16,5.62,7.41,10.91,11.23,10.5C628,385.31,627.5,375.08,626.93,364.54Zm109.66.37c-.67,10.27-1.34,20.55-2,30.76,6.38-.58,11.44-6.22,11.75-13.63C746.75,372.1,743.3,366.07,736.59,364.91Zm-54.82-49.24a7.37,7.37,0,1,0,0-14.73,7.37,7.37,0,1,0,0,14.73Z" transform="translate(-613.45 -297.45)"/><path class="cls-1" d="M681.81,330.25c6.5,0,13.1-.72,19.49.14,18,2.39,30.44,16.38,31.25,34.66a127.68,127.68,0,0,1-.4,20.33c-2,17.09-14,29.8-31.13,31.35-12.89,1.17-26,.6-39,0-12.17-.52-26.94-10.12-29.7-27.13a104,104,0,0,1-.43-31.11c2.41-16.77,17.61-28.42,34.61-28.54,5.09,0,10.19,0,15.28,0Zm-.12,14.1c-5.8,0-11.6-.15-17.4,0-12,.36-22.65,9.83-24,21.74a91,91,0,0,0-.23,16.51c1,14.32,13.79,24.32,27.94,23.44,8.26-.52,16.6.14,24.9.16,12.22,0,23-2.58,28.36-16.28,2.36-6,2.08-13.29,2.12-20,.09-14.47-11.06-25.39-25.57-25.6C692.45,344.27,687.07,344.34,681.69,344.35Z" transform="translate(-613.45 -297.45)"/><path class="cls-2" d="M742,397.47c1,20.18-5.56,36.79-20.69,50.58-.51-1.35-.9-2.18-1.13-3.05-3.16-11.82-12.54-19.06-24.88-19.12q-13.15-.08-26.32,0c-13.31.05-22.23,6.77-25.9,19.46-.19.67-.37,1.33-.56,2-12.43-5.81-23.31-32-20.67-49.47A19.1,19.1,0,0,1,636.07,406c7.6,10.16,18.41,14.56,30.94,14.74,9.48.14,19,.11,28.44,0,14.79-.11,26.46-6.06,34.69-18.56a8.18,8.18,0,0,1,3.88-2.54C736.37,398.81,738.85,398.31,742,397.47Z" transform="translate(-613.45 -297.45)"/><path class="cls-1" d="M681.21,463.06a63,63,0,0,1-32.06-9.5c-2.77-1.7-3.39-3.68-2.9-6.66,1.51-9.11,10.15-17.13,19.79-17.45,10.3-.34,20.63-.33,30.93,0s18.54,8.29,20.21,18.46c.41,2.47-.28,3.86-2.33,5.21A62,62,0,0,1,681.21,463.06Z" transform="translate(-613.45 -297.45)"/><path class="cls-1" d="M626.93,364.54c.57,10.54,1.11,20.77,1.66,31.06-3.82.41-10.07-4.88-11.23-10.5C615.26,374.87,618.86,366.93,626.93,364.54Z" transform="translate(-613.45 -297.45)"/><path class="cls-1" d="M736.59,364.91c6.71,1.16,10.16,7.19,9.75,17.13-.31,7.41-5.37,13-11.75,13.63C735.25,385.46,735.92,375.18,736.59,364.91Z" transform="translate(-613.45 -297.45)"/><path class="cls-2" d="M681.77,315.67a7.37,7.37,0,1,1,0-14.73,7.37,7.37,0,1,1,0,14.73Z" transform="translate(-613.45 -297.45)"/><path d="M681.69,344.34c5.38,0,10.76-.07,16.13,0,14.51.21,25.66,11.13,25.57,25.6,0,6.71.24,14-2.12,20-5.34,13.7-16.14,16.31-28.36,16.28-8.3,0-16.64-.68-24.9-.16-14.15.88-27-9.12-27.94-23.44a91,91,0,0,1,.23-16.51c1.34-11.91,12-21.38,24-21.74C670.09,344.2,675.89,344.35,681.69,344.34Zm-.15,3.43H665.41a21.27,21.27,0,0,0-13.69,4.9c-8.61,6.89-12,29.31-5.48,38.39,2.25,3.15,4.94,6.73,8.27,8.17a46.42,46.42,0,0,0,15.42,3.19c8.57.52,17.2.16,25.8.26,14.27.16,24.15-9.41,24.31-23.62,0-3,.05-5.94,0-8.91a22.26,22.26,0,0,0-22.38-22.37C692.28,347.71,686.91,347.77,681.54,347.77Z" transform="translate(-613.45 -297.45)"/><path class="cls-3" d="M681.54,347.77c5.37,0,10.74-.06,16.12,0A22.26,22.26,0,0,1,720,370.15c.05,3,0,5.94,0,8.91-.16,14.21-10,23.78-24.31,23.62-8.6-.1-17.23.26-25.8-.26a46.42,46.42,0,0,1-15.42-3.19c-3.33-1.44-6-5-8.27-8.17-6.51-9.08-3.13-31.5,5.48-38.39a21.27,21.27,0,0,1,13.69-4.9Zm.05,47.57a12.82,12.82,0,0,0,12.79-10.58c.48-2.59-.12-4.06-3.13-4q-9.51.17-19,0c-3,0-3.59,1.42-3.24,4C669.87,391.3,674.47,395.19,681.59,395.34Zm25-24.8a5.75,5.75,0,0,0-6-5.73,5.93,5.93,0,1,0,.36,11.85A5.8,5.8,0,0,0,706.58,370.54Zm-38.18.08a5.87,5.87,0,0,0-6-5.83,6.2,6.2,0,0,0-5.84,6,6,6,0,0,0,6,5.81A5.83,5.83,0,0,0,668.4,370.62Z" transform="translate(-613.45 -297.45)"/><path d="M681.59,395.34c-7.12-.15-11.72-4-12.62-10.59-.35-2.57.25-4,3.24-4q9.52.15,19,0c3,0,3.61,1.43,3.13,4A12.82,12.82,0,0,1,681.59,395.34Zm7-5.91c-6.69-4.84-10.5-4.67-13.35.35C679.63,394,683.9,392,688.6,389.43Z" transform="translate(-613.45 -297.45)"/><path d="M706.58,370.54a5.8,5.8,0,0,1-5.66,6.12,5.93,5.93,0,1,1-.36-11.85A5.75,5.75,0,0,1,706.58,370.54Z" transform="translate(-613.45 -297.45)"/><path d="M668.4,370.62a5.83,5.83,0,0,1-5.75,6,6,6,0,0,1-6-5.81,6.2,6.2,0,0,1,5.84-6A5.87,5.87,0,0,1,668.4,370.62Z" transform="translate(-613.45 -297.45)"/><path class="cls-4" d="M688.6,389.43c-4.7,2.52-9,4.59-13.35.35C678.1,384.76,681.91,384.59,688.6,389.43Z" transform="translate(-613.45 -297.45)"/></svg>