<svg xmlns="http://www.w3.org/2000/svg" viewBox="0 0 433.81 394.84"><defs><style>.cls-1{fill:#a9c17e;}.cls-2{fill:#f7af4d;}.cls-3{fill:#578457;}.cls-4{fill:#e89a10;}.cls-5{opacity:0.5;}.cls-6{fill:#bc9c15;}.cls-7{fill:#ffd789;}.cls-8{fill:#cda462;}.cls-9{fill:#eb9fa1;}.cls-10{fill:#282f39;}.cls-11{fill:#d38793;}.cls-12{fill:#c65f70;}.cls-13,.cls-16{fill:#fff;}.cls-14{fill:#f2b1c0;}.cls-15{fill:#c35d6e;}.cls-16{stroke:#fff;stroke-miterlimit:10;}</style></defs><title>money-pig</title><g id="Object"><path class="cls-1" d="M382.17,183c-6.88,38.4.43,76.47,0,115.05,0,3.49,5.47,3.49,5.41,0C387,260,380,221.27,385,183.33c.21-1.61-2.55-2-2.83-.38Z" transform="translate(-34.62 -42.85)"/><path class="cls-2" d="M449.53,381.09a21.32,21.32,0,0,0-13.43-7.87c3.67-6.22,9.18-13.14,7.38-20.62-1-4.25-5-4.83-8.64-4.9a6.24,6.24,0,0,1-3.72-.84c-1.64-1.14-4-.77-5.73,0-2.11,1-3.6,2.71-5.81,3.57-1.49.57-2.19.05-3.46-.74a22.67,22.67,0,0,0-5.42-2.14c-1.35-.42-2.93-.83-4.22,0-2.64,1.66-3.25,6.15-3.05,9,.27,4,2,7.93,3.95,11.4a25.1,25.1,0,0,0,2.68,3.83c-7.62,1.53-13.67,6.94-18.08,13.17-4.69,6.61-7.63,14.59-7.24,22.76.73,15.42,14.66,24.35,28.77,25.75,12.95,1.29,27.29-2.55,36.29-12.35C459.85,410.17,458.57,392.29,449.53,381.09Z" transform="translate(-34.62 -42.85)"/><path class="cls-3" d="M425.52,397.4c-.09-3.09-2.56-4.77-5.48-4.69-1.21,0-2.85.83-2.81,2.29.11,4.3,16.61,2.84,16.89,12.65.17,6.51-5.85,9-10.82,9.15-.5,0-1,0-1.46,0l.07,2.67-2.67.07-.09-3.29a10.79,10.79,0,0,1-4.68-3l-.37,3.23-7.3.2-.29-10.52,7.76-.21c.1,3.5,3.62,4,5.37,4,1.46,0,3.54-.43,3.49-2.18-.09-3.26-16.07-1.43-16.37-12.08-.17-6.17,5.59-9.13,9.69-9.24a13,13,0,0,1,1.87.07l-.08-3.09,2.67-.07L421,387a7.48,7.48,0,0,1,4.26,3.39l.33-3.52,7.17-.19.29,10.47Z" transform="translate(-34.62 -42.85)"/><path class="cls-4" d="M406.88,372.07c1.53,1.84,4.43,2,6.64,2.32A70.21,70.21,0,0,0,422,375a63.28,63.28,0,0,0,8.6-.42c2.62-.29,5.7-.48,8-1.84a1.6,1.6,0,0,0-.8-2.95c-2.57-.27-5.33.53-7.91.68a74.17,74.17,0,0,1-7.89,0c-2.62-.13-5.22-.45-7.83-.72-2.26-.23-4.93-1-7,.25a1.31,1.31,0,0,0-.26,2Z" transform="translate(-34.62 -42.85)"/><path class="cls-4" d="M407.13,370.57c-2.36-1.95-5.81-2.86-8.61-3.94-1.51-.59-8.81-2.9-7.57-5.55,2.25-4.79,13.76,9.14,15.76,10.64.54.41,1.18-.36.89-.88-2-3.5-5.29-6.65-8.28-9.27-2.34-2-7.35-5.72-9.93-2s2.41,6.41,5.19,7.66a51.18,51.18,0,0,0,6.94,2.49c1.64.46,3.58.63,5,1.6.45.31,1-.41.59-.76Z" transform="translate(-34.62 -42.85)"/><path class="cls-4" d="M405.92,369.65c-3.13-2.23-7-2-10.61-1.28-3,.58-7.82,2.05-9.19,5.14s3.81,3.22,5.52,3a40.3,40.3,0,0,0,7.58-1.69c2.39-.78,5.18-1.69,7.1-3.36a.42.42,0,0,0-.29-.71c-3.39.22-6.75,2.12-10,3a30.55,30.55,0,0,1-5.38.91,7.71,7.71,0,0,1-1.92-.08c-1-.17-.68-.48-.09-1.06,2.1-2.08,5.44-3,8.25-3.48a20,20,0,0,1,8.84.15c.33.11.48-.35.22-.53Z" transform="translate(-34.62 -42.85)"/><path class="cls-2" d="M374.53,385.09a21.32,21.32,0,0,0-13.43-7.87c3.67-6.22,9.18-13.14,7.38-20.62-1-4.25-5-4.83-8.64-4.9a6.24,6.24,0,0,1-3.72-.84c-1.64-1.14-4-.77-5.73,0-2.11,1-3.6,2.71-5.81,3.57-1.49.57-2.19.05-3.46-.74a22.67,22.67,0,0,0-5.42-2.14c-1.35-.42-2.93-.83-4.22,0-2.64,1.66-3.25,6.15-3.05,9,.27,4,2,7.93,3.95,11.4a25.1,25.1,0,0,0,2.68,3.83c-7.62,1.53-13.67,6.94-18.08,13.17-4.69,6.61-7.63,14.59-7.24,22.76.73,15.42,14.66,24.35,28.77,25.75,12.95,1.29,27.29-2.55,36.29-12.35C384.85,414.17,383.57,396.29,374.53,385.09Z" transform="translate(-34.62 -42.85)"/><path class="cls-3" d="M350.52,401.4c-.09-3.09-2.56-4.77-5.48-4.69-1.21,0-2.85.83-2.81,2.29.11,4.3,16.61,2.84,16.89,12.65.17,6.51-5.85,9-10.82,9.15-.5,0-1,0-1.46,0l.07,2.67-2.67.07-.09-3.29a10.79,10.79,0,0,1-4.68-3l-.37,3.23-7.3.2-.29-10.52,7.76-.21c.1,3.5,3.62,4,5.37,4,1.46,0,3.54-.43,3.49-2.18-.09-3.26-16.07-1.43-16.37-12.08-.17-6.17,5.59-9.13,9.69-9.24a13,13,0,0,1,1.87.07l-.08-3.09,2.67-.07L346,391a7.48,7.48,0,0,1,4.26,3.39l.33-3.52,7.17-.19.29,10.47Z" transform="translate(-34.62 -42.85)"/><path class="cls-4" d="M331.88,376.07c1.53,1.84,4.43,2,6.64,2.32A70.21,70.21,0,0,0,347,379a63.28,63.28,0,0,0,8.6-.42c2.62-.29,5.7-.48,8-1.84a1.6,1.6,0,0,0-.8-2.95c-2.57-.27-5.33.53-7.91.68a74.17,74.17,0,0,1-7.89,0c-2.62-.13-5.22-.45-7.83-.72-2.26-.23-4.93-1-7,.25a1.31,1.31,0,0,0-.26,2Z" transform="translate(-34.62 -42.85)"/><path class="cls-4" d="M332.13,374.57c-2.36-1.95-5.81-2.86-8.61-3.94-1.51-.59-8.81-2.9-7.57-5.55,2.25-4.79,13.76,9.14,15.76,10.64.54.41,1.18-.36.89-.88-2-3.5-5.29-6.65-8.28-9.27-2.34-2-7.35-5.72-9.93-2s2.41,6.41,5.19,7.66a51.18,51.18,0,0,0,6.94,2.49c1.64.46,3.58.63,5,1.6.45.31,1-.41.59-.76Z" transform="translate(-34.62 -42.85)"/><path class="cls-4" d="M330.92,373.65c-3.13-2.23-7-2-10.61-1.28-3,.58-7.82,2.05-9.19,5.14s3.81,3.22,5.52,3a40.3,40.3,0,0,0,7.58-1.69c2.39-.78,5.18-1.69,7.1-3.36a.42.42,0,0,0-.29-.71c-3.39.22-6.75,2.12-10,3a30.55,30.55,0,0,1-5.38.91,7.71,7.71,0,0,1-1.92-.08c-1-.17-.68-.48-.09-1.06,2.1-2.08,5.44-3,8.25-3.48a20,20,0,0,1,8.84.15c.33.11.48-.35.22-.53Z" transform="translate(-34.62 -42.85)"/><path class="cls-2" d="M412.53,303.59a21.32,21.32,0,0,0-13.43-7.87c3.67-6.22,9.18-13.14,7.38-20.62-1-4.25-5-4.83-8.64-4.9a6.24,6.24,0,0,1-3.72-.84c-1.64-1.14-4-.77-5.73,0-2.11,1-3.6,2.71-5.81,3.57-1.49.57-2.19.05-3.46-.74a22.67,22.67,0,0,0-5.42-2.14c-1.35-.42-2.93-.83-4.22,0-2.64,1.66-3.25,6.15-3.05,9,.27,4,2,7.93,3.95,11.4a25.1,25.1,0,0,0,2.68,3.83c-7.62,1.53-13.67,6.94-18.08,13.17-4.69,6.61-7.63,14.59-7.24,22.76.73,15.42,14.66,24.35,28.77,25.75,12.95,1.29,27.29-2.55,36.29-12.35C422.85,332.67,421.57,314.79,412.53,303.59Z" transform="translate(-34.62 -42.85)"/><path class="cls-3" d="M388.52,319.9c-.09-3.09-2.56-4.77-5.48-4.69-1.21,0-2.85.83-2.81,2.29.11,4.3,16.61,2.84,16.89,12.65.17,6.51-5.85,9-10.82,9.15-.5,0-1,0-1.46,0l.07,2.67-2.67.07-.09-3.29a10.79,10.79,0,0,1-4.68-3l-.37,3.23-7.3.2-.29-10.52,7.76-.21c.1,3.5,3.62,4,5.37,4,1.46,0,3.54-.43,3.49-2.18-.09-3.26-16.07-1.43-16.37-12.08-.17-6.17,5.59-9.13,9.69-9.24a13,13,0,0,1,1.87.07l-.08-3.09,2.67-.07.11,3.71a7.48,7.48,0,0,1,4.26,3.39l.33-3.52,7.17-.19.29,10.47Z" transform="translate(-34.62 -42.85)"/><path class="cls-4" d="M369.88,294.57c1.53,1.84,4.43,2,6.64,2.32a70.21,70.21,0,0,0,8.45.65,63.28,63.28,0,0,0,8.6-.42c2.62-.29,5.7-.48,8-1.84a1.6,1.6,0,0,0-.8-2.95c-2.57-.27-5.33.53-7.91.68a74.17,74.17,0,0,1-7.89,0c-2.62-.13-5.22-.45-7.83-.72-2.26-.23-4.93-1-7,.25a1.31,1.31,0,0,0-.26,2Z" transform="translate(-34.62 -42.85)"/><path class="cls-4" d="M370.13,293.07c-2.36-1.95-5.81-2.86-8.61-3.94-1.51-.59-8.81-2.9-7.57-5.55,2.25-4.79,13.76,9.14,15.76,10.64.54.41,1.18-.36.89-.88-2-3.5-5.29-6.65-8.28-9.27-2.34-2-7.35-5.72-9.93-2s2.41,6.41,5.19,7.66a51.18,51.18,0,0,0,6.94,2.49c1.64.46,3.58.63,5,1.6.45.31,1-.41.59-.76Z" transform="translate(-34.62 -42.85)"/><path class="cls-4" d="M368.92,292.15c-3.13-2.23-7-2-10.61-1.28-3,.58-7.82,2.05-9.19,5.14s3.81,3.22,5.52,3a40.3,40.3,0,0,0,7.58-1.69c2.39-.78,5.18-1.69,7.1-3.36a.42.42,0,0,0-.29-.71c-3.39.22-6.75,2.12-10,3a30.55,30.55,0,0,1-5.38.91,7.71,7.71,0,0,1-1.92-.08c-1-.17-.68-.48-.09-1.06,2.1-2.08,5.44-3,8.25-3.48a20,20,0,0,1,8.84.15c.33.11.48-.35.22-.53Z" transform="translate(-34.62 -42.85)"/><path class="cls-1" d="M384.76,176.22c-1.73-3.12-5-5.44-8-7.28-6.28-3.92-13.95-6.13-21.25-7.05-9.78-1.23-18.26,1.55-27,5.53A84.72,84.72,0,0,1,311.11,173c-4.25.92-9,1.11-11.49,4.89a2.2,2.2,0,0,0,0,2.27c3.42,5.45,9.76,8.09,15.63,10,7.49,2.46,15.45,3.59,23.27,4.36,16,1.6,34.12.95,46.11-11a9.65,9.65,0,0,1,.33,1.58.46.46,0,0,0,.92,0C386.25,182.12,386.29,179,384.76,176.22Z" transform="translate(-34.62 -42.85)"/><path class="cls-3" d="M312.42,183c10,7.92,21.63,5.49,32.71,1.32,5.75-2.16,11.37-4.67,17.36-6.13a25.47,25.47,0,0,1,8.43-.68c3.35.3,5.88,2.12,8.67,3.78a1.43,1.43,0,0,0,1.73-2.24c-7.77-8.71-21.65-3.61-30.56-.09-11.87,4.7-25.27,10.92-36.81,2-1.13-.88-2.66,1.1-1.53,2Z" transform="translate(-34.62 -42.85)"/><path class="cls-1" d="M381.85,186.71a.46.46,0,0,0,.92,0,9.55,9.55,0,0,1,.33-1.59c12,11.92,30.13,12.56,46.11,11,7.82-.78,15.78-1.9,23.27-4.36,5.87-1.93,12.21-4.58,15.63-10a2.18,2.18,0,0,0,0-2.26c-2.53-3.78-7.24-4-11.49-4.89a84.75,84.75,0,0,1-17.36-5.6c-8.79-4-17.27-6.75-27.05-5.52-7.3.91-15,3.12-21.25,7-3,1.84-6.26,4.16-8,7.28C381.44,180.51,381.48,183.66,381.85,186.71Z" transform="translate(-34.62 -42.85)"/><path class="cls-3" d="M453.78,182.54c-11.26,8.66-24.37,2.94-36-1.73-9.06-3.63-23.38-9.16-31.35-.23a1.44,1.44,0,0,0,1.73,2.25c2.54-1.51,4.73-3,7.68-3.63a21.67,21.67,0,0,1,8.67.35c6,1.22,11.64,3.81,17.3,6,11.27,4.35,23.25,7.1,33.52-1,1.13-.89-.4-2.87-1.53-2Z" transform="translate(-34.62 -42.85)"/><g class="cls-5"><path class="cls-6" d="M193.49,133.74a16.92,16.92,0,1,1-19.8-13.46A16.92,16.92,0,0,1,193.49,133.74Z" transform="translate(-34.62 -42.85)"/><path class="cls-7" d="M192.59,135.06A16.92,16.92,0,1,1,172.8,121.6,16.92,16.92,0,0,1,192.59,135.06Z" transform="translate(-34.62 -42.85)"/><g class="cls-5"><path class="cls-6" d="M178.1,151.83a13.31,13.31,0,1,1,10.59-15.57A13.32,13.32,0,0,1,178.1,151.83Zm-4.28-22.48A9.57,9.57,0,1,0,185,137,9.59,9.59,0,0,0,173.82,129.35Z" transform="translate(-34.62 -42.85)"/></g><path class="cls-8" d="M177.31,136.68a1.74,1.74,0,0,0-2.19-1.34c-.42.08-1,.46-.86,1,.29,1.5,6,.05,6.66,3.48.43,2.28-1.54,3.5-3.28,3.83l-.52.07.18.93-.93.18-.22-1.15a3.83,3.83,0,0,1-1.82-.79l.06,1.15-2.56.49-.7-3.68,2.72-.51c.23,1.22,1.49,1.19,2.11,1.1s1.22-.35,1.1-1c-.21-1.14-5.72.41-6.44-3.31a3.39,3.39,0,0,1,2.88-3.8,5,5,0,0,1,.66-.08l-.2-1.08.93-.18.25,1.3a2.62,2.62,0,0,1,1.69.95l-.08-1.26,2.51-.48.69,3.67Z" transform="translate(-34.62 -42.85)"/></g><path class="cls-9" d="M210.63,228.66c-21.33-12-43.67-12.69-68-10.33C94,223.06,59.08,260.87,55.17,306.19c-4.54-1.16-8.91-3.2-13.53-4A5.11,5.11,0,0,0,35.31,307c-1.19,12.26-1.32,25.32,3.55,36.84,4.5,10.65,14.08,12.78,23.54,10.56.34.82.69,1.63,1.05,2.45,17.8,39.9,65.41,51.35,105.33,48.85,21.09-1.33,42.63-6.92,60.27-18.87,18-12.23,30.43-32.53,35.13-53.65C273.71,290.32,247.07,249.21,210.63,228.66Z" transform="translate(-34.62 -42.85)"/><path class="cls-10" d="M73.31,292c.06-2.42.67-6.32,3.53-7.07s4.83,2.94,5.74,5.08c1,2.36,4.46.32,3.46-2-1.72-4-5.39-8.24-10.26-6.92-4.72,1.29-6.37,6.58-6.47,10.93-.06,2.57,3.94,2.57,4,0Z" transform="translate(-34.62 -42.85)"/><path class="cls-11" d="M135.44,244.08c-6.54-14-20.4-21-33.38-28a3.22,3.22,0,0,0-3.84,1C91.41,226.89,84.9,237,82.75,248.92a3.7,3.7,0,0,0-.07.38,2.6,2.6,0,0,0-.05.39,56.89,56.89,0,0,0-.44,9.94A3.24,3.24,0,0,0,85,262.44c3.28.43,6.89-.86,10-1.69,5.14-1.37,10.19-3,15.24-4.67s10.06-3.37,15.09-5.09l5.54-1.87,1.62-.51C134.53,248.59,136.39,246.13,135.44,244.08Zm-4.1,4.29-.21-.09Z" transform="translate(-34.62 -42.85)"/><path class="cls-12" d="M40.78,316.58c-1.85,6.37.37,13.34,1,19.75.46,4.91,7.86,3.39,6.35-.86-2.18-6.15-2.27-12.74-4.26-18.89a1.59,1.59,0,0,0-3,0Z" transform="translate(-34.62 -42.85)"/><path class="cls-9" d="M259.61,319c8.36,7.35,19.55,10.92,27.38,1.1,2.72-3.41,5.49-8.29,4.53-12.85a7.56,7.56,0,0,0-9-5.87c-9.33,2.15-2.64,14.72,3.22,16.82s12.41.74,17.43-2.67c4.21-2.86,8.81-8.17,7.81-13.59a1.39,1.39,0,0,0-2.3-.61c-5.11,4.82-7.25,11.27-15.14,12.65-3.09.55-7.07.29-9.19-2.31-.95-1.17-2.79-7.31.68-4.41,3.26,2.72-2.51,10.26-4.45,12.28-5.59,5.85-14.3,2-19.76-2.09-.89-.67-2,.81-1.2,1.55Z" transform="translate(-34.62 -42.85)"/><path class="cls-9" d="M145,383.39c-10-2.05-19.94-1.85-30-.48a85.06,85.06,0,0,0-10.36,2.16l-3,.81a18.07,18.07,0,0,0-2.19.42,1.78,1.78,0,0,0-1.9,2c.64,7.22,1.84,14.4,2.62,21.62.42,3.92.11,9.55,1.95,13.18,1.27,2.52,4,3.44,6.41,4.43A57.2,57.2,0,0,0,122,431c7.81,1.08,20,2,22.92-7.4,1.45-4.64.4-10.3,0-15-.54-6.45,2-12.71,3.61-18.89C149.24,387.13,147.77,384,145,383.39Z" transform="translate(-34.62 -42.85)"/><path class="cls-9" d="M222.34,383.39c-10-2.05-20-1.85-30-.48A85.46,85.46,0,0,0,182,385.07l-3,.81a18.07,18.07,0,0,0-2.19.42,1.78,1.78,0,0,0-1.9,2c.64,7.22,1.85,14.4,2.62,21.62.43,3.92.12,9.55,2,13.18,1.28,2.52,4,3.44,6.42,4.43A57.12,57.12,0,0,0,199.37,431c7.81,1.08,20,2,22.92-7.4,1.45-4.64.41-10.3,0-15-.53-6.45,2-12.71,3.61-18.89C226.57,387.13,225.1,384,222.34,383.39Z" transform="translate(-34.62 -42.85)"/><path class="cls-13" d="M209.6,247.2c17.84,11,27.17,28.37,34.24,47.5,1.82,4.94,9.68,2.94,8-2.2-6.18-18.91-19.16-44.63-40.51-49.41a2.26,2.26,0,0,0-1.73,4.11Z" transform="translate(-34.62 -42.85)"/><path class="cls-14" d="M144.58,238.33l2.11-9.61s31-10.73,52.21,4.79l-.58,7.86A56.8,56.8,0,0,0,144.58,238.33Z" transform="translate(-34.62 -42.85)"/><path class="cls-15" d="M143.67,242.32l2.12-9.62s31.49-10.69,52.88,4.84l-.57,8A58,58,0,0,0,143.67,242.32Z" transform="translate(-34.62 -42.85)"/><path class="cls-6" d="M190.45,189.92A18.94,18.94,0,1,1,171.51,171,18.94,18.94,0,0,1,190.45,189.92Z" transform="translate(-34.62 -42.85)"/><path class="cls-7" d="M189.18,191.19a18.94,18.94,0,1,1-18.93-18.94A18.93,18.93,0,0,1,189.18,191.19Z" transform="translate(-34.62 -42.85)"/><g class="cls-5"><path class="cls-6" d="M169.74,206.59a14.9,14.9,0,1,1,14.9-14.9A14.92,14.92,0,0,1,169.74,206.59Zm0-25.61a10.72,10.72,0,1,0,10.72,10.71A10.72,10.72,0,0,0,169.74,181Z" transform="translate(-34.62 -42.85)"/></g><path class="cls-8" d="M172.05,189.77a1.94,1.94,0,0,0-2.13-1.93c-.48,0-1.15.3-1.15.88,0,1.71,6.59,1.31,6.59,5.22,0,2.59-2.43,3.53-4.41,3.53a5.28,5.28,0,0,1-.58,0v1.07h-1.06v-1.32a4.28,4.28,0,0,1-1.83-1.24l-.19,1.28h-2.91V193h3.1c0,1.39,1.39,1.63,2.09,1.66s1.41-.13,1.41-.83c0-1.3-6.38-.75-6.38-5,0-2.46,2.33-3.57,4-3.57a4.73,4.73,0,0,1,.75,0v-1.23h1.06v1.48A2.92,2.92,0,0,1,172,187l.17-1.39h2.86v4.17Z" transform="translate(-34.62 -42.85)"/><path class="cls-6" d="M217.08,145.12a16.92,16.92,0,1,1-19.8-13.46A16.93,16.93,0,0,1,217.08,145.12Z" transform="translate(-34.62 -42.85)"/><path class="cls-7" d="M216.18,146.44A16.92,16.92,0,1,1,196.38,133,16.92,16.92,0,0,1,216.18,146.44Z" transform="translate(-34.62 -42.85)"/><g class="cls-5"><path class="cls-6" d="M201.69,163.21a13.31,13.31,0,1,1,10.58-15.57A13.32,13.32,0,0,1,201.69,163.21Zm-4.29-22.48a9.57,9.57,0,1,0,11.2,7.61A9.58,9.58,0,0,0,197.4,140.73Z" transform="translate(-34.62 -42.85)"/></g><path class="cls-8" d="M200.9,148.06a1.74,1.74,0,0,0-2.19-1.34c-.42.08-1,.46-.86,1,.29,1.5,6,.05,6.65,3.48.44,2.28-1.54,3.5-3.27,3.83l-.52.07.18.93-.94.18-.22-1.15a3.83,3.83,0,0,1-1.81-.79l.05,1.15-2.55.49-.7-3.68,2.71-.51c.24,1.22,1.5,1.19,2.12,1.1s1.22-.35,1.1-1c-.22-1.14-5.73.41-6.44-3.31a3.39,3.39,0,0,1,2.88-3.8,5,5,0,0,1,.66-.08l-.21-1.08.94-.18.25,1.3a2.62,2.62,0,0,1,1.69.95l-.09-1.26,2.51-.48.7,3.67Z" transform="translate(-34.62 -42.85)"/><path class="cls-6" d="M176.61,89.08a16.93,16.93,0,1,1-13.93-19.46A16.92,16.92,0,0,1,176.61,89.08Z" transform="translate(-34.62 -42.85)"/><path class="cls-7" d="M175.31,90a16.92,16.92,0,1,1-13.93-19.46A16.92,16.92,0,0,1,175.31,90Z" transform="translate(-34.62 -42.85)"/><g class="cls-5"><path class="cls-6" d="M155.92,100.75a13.31,13.31,0,1,1,15.31-11A13.33,13.33,0,0,1,155.92,100.75Zm3.74-22.58a9.58,9.58,0,1,0,7.88,11A9.58,9.58,0,0,0,159.66,78.17Z" transform="translate(-34.62 -42.85)"/></g><path class="cls-8" d="M160.41,86.26a1.73,1.73,0,0,0-1.6-2c-.42-.07-1.05.1-1.14.61-.25,1.51,5.62,2.12,5.05,5.56-.38,2.29-2.66,2.75-4.4,2.46a3.82,3.82,0,0,1-.51-.11l-.16.94-.93-.16.19-1.15A3.79,3.79,0,0,1,155.48,91l-.35,1.1-2.57-.42.62-3.7,2.72.45c-.2,1.24,1,1.65,1.61,1.78s1.26.09,1.36-.53c.19-1.14-5.51-1.59-4.9-5.33a3.38,3.38,0,0,1,4-2.57,3.92,3.92,0,0,1,.66.15l.18-1.08.94.15-.22,1.31a2.66,2.66,0,0,1,1.26,1.47l.35-1.21,2.52.42-.61,3.68Z" transform="translate(-34.62 -42.85)"/><path class="cls-7" d="M148.51,110.15a280.13,280.13,0,0,0-.9,28.09c0,9.36-.7,19,.82,28.31a.83.83,0,0,0,1.59,0c1.44-8.77.8-17.89.82-26.75a296.23,296.23,0,0,0-.9-29.65.72.72,0,0,0-1.43,0Z" transform="translate(-34.62 -42.85)"/><path class="cls-7" d="M182.32,60.22a237.24,237.24,0,0,0-.9,26.26c0,8.24-.66,16.8.82,24.93a.83.83,0,0,0,1.59,0c1.47-8.13.79-16.69.82-24.93a239.7,239.7,0,0,0-.9-26.26.72.72,0,0,0-1.43,0Z" transform="translate(-34.62 -42.85)"/><path class="cls-7" d="M140.11,123.16c-.5,7.33-1.64,15.3.21,22.52a.61.61,0,0,0,1.17,0c1.85-7.22.71-15.19.21-22.52a.8.8,0,0,0-1.59,0Z" transform="translate(-34.62 -42.85)"/><path class="cls-7" d="M194.2,97.67c-.5,7.33-1.64,15.3.21,22.53a.61.61,0,0,0,1.17,0c1.85-7.23.71-15.2.21-22.53a.8.8,0,0,0-1.59,0Z" transform="translate(-34.62 -42.85)"/><path class="cls-7" d="M195.76,175.17c-.5,7.33-1.64,15.3.21,22.52a.61.61,0,0,0,1.17,0c1.85-7.22.71-15.19.21-22.52a.8.8,0,0,0-1.59,0Z" transform="translate(-34.62 -42.85)"/><path class="cls-16" d="M132.74,115a56.27,56.27,0,0,1-8.56-5.81,15.67,15.67,0,0,1-3.27-4.15c-.92-1.7-1.27-3.62-2-5.39a.64.64,0,0,0-1.25-.13c-1.92,7.33-7.87,12-14.16,15.62a1.28,1.28,0,0,0,.28,2.32,18.84,18.84,0,0,1,9,7,17.06,17.06,0,0,1,2.31,5.59c.43,1.74,1.74,9.62,3.11,3.81.92-3.92,1.29-7.63,4.38-10.58,2.88-2.75,6.76-4.25,10.18-6.18A1.2,1.2,0,0,0,132.74,115Z" transform="translate(-34.62 -42.85)"/><path class="cls-16" d="M226.67,201.63a27.22,27.22,0,0,1-4.2-2.85,7.52,7.52,0,0,1-1.6-2c-.45-.83-.62-1.78-1-2.64,0-.32-.53-.43-.62-.07-.94,3.59-3.86,5.89-6.94,7.66a.63.63,0,0,0,.14,1.14,9.13,9.13,0,0,1,4.41,3.41A8.42,8.42,0,0,1,218,209c.21.86.85,4.72,1.52,1.87.45-1.92.63-3.74,2.15-5.18s3.31-2.09,5-3A.59.59,0,0,0,226.67,201.63Z" transform="translate(-34.62 -42.85)"/><path class="cls-16" d="M210.08,49.09A20.1,20.1,0,0,1,207,47a5.67,5.67,0,0,1-1.18-1.49c-.33-.62-.46-1.31-.74-1.94a.23.23,0,0,0-.45,0c-.69,2.64-2.83,4.32-5.1,5.62a.47.47,0,0,0,.11.84,6.79,6.79,0,0,1,3.24,2.5,6.11,6.11,0,0,1,.83,2c.16.63.63,3.47,1.12,1.38.33-1.41.46-2.75,1.58-3.81a17.73,17.73,0,0,1,3.66-2.23A.43.43,0,0,0,210.08,49.09Z" transform="translate(-34.62 -42.85)"/><path class="cls-13" d="M254,320.34c6.88,0,6.89-10.68,0-10.68s-6.89,10.68,0,10.68Z" transform="translate(-34.62 -42.85)"/></g></svg>